<svg xmlns="http://www.w3.org/2000/svg" viewBox="0 0 24 21.6">
    <defs>
        <style>
            .cls-1{fill:#00a680}
        </style>
    </defs>
    <path id="coins" d="M24 10.2c-.04-.684-.854-1.219-2.482-1.627A.9.9 0 0 0 21.6 8.2V5.4h-.007C21.45 3.069 11.9 3 10.8 3S.15 3.069.007 5.4H0V8.2c0 .76.983 1.354 2.442 1.8a.877.877 0 0 0-.036.2H2.4v2.795C.828 13.4.043 13.927 0 14.6V17.4c0 .529.478.978 1.259 1.352a.881.881 0 0 0-.053.248H1.2V21.8c0 1.33 3 2.156 6.327 2.542a.367.367 0 0 0 .073.015h.022c.642.072 1.294.129 1.939.169a.33.33 0 0 0 .04.008h.021c.819.05 1.625.075 2.379.075s1.56-.025 2.379-.075h.021c.007 0 .026-.007.04-.008.645-.04 1.3-.1 1.939-.169h.022a.367.367 0 0 0 .073-.015C19.8 23.956 22.8 23.129 22.8 21.8V19h-.006c-.028-.49-.446-.9-1.272-1.242a.894.894 0 0 0 .078-.36v-2.614C23.036 14.342 24 13.752 24 13v-2.8zm-3.239 7.328l-.136.12a3.579 3.579 0 0 1-1.02.552v-1.907a5.953 5.953 0 0 0 1.2-.55V17.4a.254.254 0 0 1-.048.128zm-8.951 1.859h-.61v-2h.394q.6-.011 1.206-.038v2l-.258.012c-.242.012-.484.02-.732.026zm-1.747.006q-.275 0-.547-.013h-.067q-.327-.011-.649-.027v-2q.6.028 1.206.038h.393v2h-.232zm-7.225-.912L2.8 18.47v-1.933c.374.1.775.193 1.2.276v1.952q-.551-.117-1.014-.244zm8.431 3.312h.33v2q-.829-.008-1.6-.046v-2q.6.028 1.206.038zm1.524 0q.6-.011 1.206-.038v2q-.77.038-1.6.046v-2h.33zM16 21.611V23.6q-.577.061-1.2.105v-1.997c.406-.026.806-.059 1.2-.097zm.8-.086q.619-.074 1.2-.169v1.964q-.565.1-1.2.183zm2-.312c.425-.084.826-.176 1.2-.276v1.932c-.356.1-.758.2-1.2.3zm-13.6 0v1.952a15.661 15.661 0 0 1-1.2-.3v-1.928c.374.101.775.193 1.2.276zm.8.143q.581.094 1.2.169V23.5q-.634-.08-1.2-.18zm2 .255c.394.038.794.07 1.2.1V23.7q-.623-.041-1.2-.1zm-.992-2.392l-.122-.012L6.8 19.2v-1.988c.394.038.794.07 1.2.1V19.3a30.174 30.174 0 0 1-.992-.081zM6 17.125V19.1q-.634-.083-1.2-.183v-1.961q.581.094 1.2.169zm7.866 2.158l-.266.02v-1.995c.406-.027.806-.059 1.2-.1V19.2c-.247.026-.5.05-.76.072zM15.6 19.1v-1.975q.619-.074 1.2-.169v1.964q-.565.1-1.2.18zm2-2.29c.425-.084.826-.176 1.2-.276v1.932c-.356.1-.758.2-1.2.3zm-5.47-1.827c-.3-.008-.595-.019-.884-.033H11.2v-2q.6.028 1.206.038h.393v2c-.195 0-.391 0-.581-.007zM2.8 9.27V7.337c.374.1.775.193 1.2.276v1.953l-.148-.031c-.213-.047-.42-.1-.619-.147A19.634 19.634 0 0 1 2.8 9.27zm7.27-1.076h.33v2a38.24 38.24 0 0 1-1.6-.046v-2q.6.028 1.206.038zm1.524 0q.6-.011 1.206-.038v2l-.2.011h-.017c-.268.012-.542.021-.819.027h-.562v-2h.33zm9.115.2h-.011l-.146.113A3.89 3.89 0 0 1 19.6 9V7.1a5.953 5.953 0 0 0 1.2-.55V8.2a.314.314 0 0 1-.092.193zM15.6 9.9V7.925q.619-.074 1.2-.169v1.961c-.379.067-.778.129-1.2.183zm2-.338V7.614c.425-.084.826-.176 1.2-.276v1.927c-.358.105-.762.204-1.2.298zm-2.8-1.551V10q-.58.061-1.2.106V8.108c.406-.026.806-.059 1.2-.097zM6.8 10V8.011c.394.038.794.07 1.2.1V10.1c-.407-.03-.809-.063-1.2-.1zM6 7.925V9.9c-.079-.01-.162-.019-.24-.03l-.15-.02q-.347-.05-.679-.106L4.8 9.72V7.756q.581.094 1.2.169zm4.3 6.975l-.162-.012q-.384-.03-.75-.066l-.156-.022H9.2v-1.989c.394.038.794.07 1.2.1V14.9zm-2.643-.3c-.158-.025-.307-.052-.458-.079v-1.965q.581.094 1.2.169V14.7a42.655 42.655 0 0 1-.714-.1zM6.4 12.413v1.949q-.663-.142-1.2-.3v-1.925c.374.101.775.193 1.2.276zm-2-.521v1.9a2.5 2.5 0 0 1-1.166-.712l-.027-.045A.253.253 0 0 1 3.2 13v-1.658a5.953 5.953 0 0 0 1.2.55zm9.594 1.1q.6-.011 1.206-.038v2c-.526.026-1.06.04-1.6.046v-2h.33zm5.169 1.535c-.176.03-.353.06-.535.088l-.318.046c-.1.014-.206.027-.309.04v-1.976q.619-.074 1.2-.169v1.964zm-2.708.342c-.149.012-.3.02-.454.031v-1.992c.406-.027.806-.059 1.2-.1V14.8c-.232.024-.464.049-.7.069zm4.571-.75c-.2.056-.41.108-.625.158l-.305.069-.095.02v-1.952c.425-.084.826-.176 1.2-.276v1.932zm2.17-3.892c-.037.272-.652.633-1.751.972a26.849 26.849 0 0 1-6.436.962l-.433.017-.362.011a41.843 41.843 0 0 1-2.028-.001l-.362-.011c-.147 0-.29-.011-.433-.017a26.845 26.845 0 0 1-6.435-.96c-1.09-.337-1.7-.7-1.75-.966a.094.094 0 0 1 .007-.024l.085.019a27.199 27.199 0 0 0 3.094.527H6.4c.639.073 1.3.13 1.983.17h.023q.735.043 1.489.061c.308.008.61.012.9.012.21 0 .425 0 .642-.006a30.63 30.63 0 0 0 7.474-.926c.086-.024.171-.05.254-.075l.152-.046c.145-.046.284-.094.418-.144l.068-.026a7.88 7.88 0 0 0 .326-.132l.09-.039c.111-.05.218-.1.317-.154.045-.024.084-.048.126-.072s.1-.056.14-.084c.025-.016.055-.031.079-.047 1.797.388 2.269.812 2.319.978zM10.8 3.8c6.6 0 9.932 1.038 9.994 1.634-.048.27-.662.628-1.75.964a26.849 26.849 0 0 1-6.436.962l-.433.017-.362.011a41.777 41.777 0 0 1-2.028 0l-.362-.011c-.147 0-.29-.011-.433-.017a26.845 26.845 0 0 1-6.434-.96C1.468 6.062.854 5.7.806 5.434.868 4.838 4.2 3.8 10.8 3.8zM.8 8.2V6.542a5.953 5.953 0 0 0 1.2.55v1.916C1.222 8.716.8 8.424.8 8.2zm1.938 5.536l.021.018a6.8 6.8 0 0 0 3.093 1.311l.1.022.315.068a30.849 30.849 0 0 0 4.53.574q.812.047 1.661.063c.25.005.5.008.738.008.276 0 .559 0 .847-.01a40.798 40.798 0 0 0 1.547-.062h.02a30.937 30.937 0 0 0 4.618-.591 7.247 7.247 0 0 1-1.183.462 27.6 27.6 0 0 1-6.912.98l-.27.008-.3.006c-.252 0-.5.008-.765.008-.346 0-.682-.005-1.014-.013l-.362-.011c-.147 0-.29-.011-.433-.017a26.846 26.846 0 0 1-6.433-.96c-1.1-.34-1.716-.7-1.751-.973.044-.153.448-.527 1.933-.893zM.8 17.4v-1.658a5.953 5.953 0 0 0 1.2.55V18.2l-.228-.089C1.139 17.856.8 17.6.8 17.4zM2 21.8v-1.658a5.953 5.953 0 0 0 1.2.55v1.915c-.778-.291-1.2-.583-1.2-.807zm18.8.809v-1.916a5.953 5.953 0 0 0 1.2-.55V21.8c0 .223-.422.516-1.2.808zm1.195-3.577c-.044.271-.658.63-1.75.968a26.849 26.849 0 0 1-6.436.962l-.433.017-.362.011a41.777 41.777 0 0 1-2.028-.001l-.358-.011-.436-.017A26.849 26.849 0 0 1 3.756 20c-1.058-.327-1.669-.674-1.746-.942.119.042.243.082.37.122l.038.012q.162.05.332.1l.13.036.2.05a29.182 29.182 0 0 0 5.324.756c.62.037 1.253.06 1.893.067h.506c.22 0 .446 0 .674-.007.584-.01 1.16-.031 1.723-.065h.008c.686-.041 1.35-.1 1.988-.173h.004c.009 0 .016 0 .025-.005a29.142 29.142 0 0 0 2.39-.373l.084-.017a10.748 10.748 0 0 0 2.905-.946 4.007 4.007 0 0 0 .239-.144c.041-.027.083-.049.118-.074.79.281 1.008.533 1.034.634zM22 13.808v-1.915a5.953 5.953 0 0 0 1.2-.55V13c0 .223-.422.516-1.2.808z" class="cls-1" transform="translate(0 -3)"/>
</svg>
