<svg xmlns="http://www.w3.org/2000/svg" viewBox="0 0 24 24.001">
    <defs>
        <style>
            .cls-1{fill:#00a680}
        </style>
    </defs>
    <path id="phone" d="M.061 18.6q.1-.307 1.3-.9.323-.188.92-.511t1.082-.6q.486-.273.912-.528.068-.051.426-.3a4.791 4.791 0 0 1 .605-.367 1.116 1.116 0 0 1 .486-.119 1.415 1.415 0 0 1 .852.486 8.3 8.3 0 0 1 .937 1.057 10.277 10.277 0 0 0 .9 1.057 1.3 1.3 0 0 0 .784.486 1.159 1.159 0 0 0 .384-.085c.153-.057.27-.105.35-.145s.215-.119.409-.239l.324-.2a17.913 17.913 0 0 0 4.006-2.966 17.9 17.9 0 0 0 2.962-4.005q.017-.034.2-.324t.239-.409a3.694 3.694 0 0 0 .145-.349 1.153 1.153 0 0 0 .085-.384 1.3 1.3 0 0 0-.486-.784 10.266 10.266 0 0 0-1.057-.9 8.3 8.3 0 0 1-1.057-.937 1.415 1.415 0 0 1-.486-.852 1.113 1.113 0 0 1 .119-.486 4.738 4.738 0 0 1 .367-.605q.247-.358.3-.426.255-.426.528-.912t.6-1.083q.324-.6.511-.92.6-1.193.9-1.3a.955.955 0 0 1 .356-.05 5.616 5.616 0 0 1 1.2.171 6.75 6.75 0 0 1 1.168.358 4.57 4.57 0 0 1 1.807 2.079 6.609 6.609 0 0 1 .869 3.17 6.583 6.583 0 0 1-.06.895 7.354 7.354 0 0 1-.213.98q-.153.545-.247.81t-.349.946q-.255.682-.307.835a15.44 15.44 0 0 1-1.415 2.983 25.275 25.275 0 0 1-3.673 4.509 25.286 25.286 0 0 1-4.509 3.673 15.464 15.464 0 0 1-2.983 1.415q-.154.051-.835.307t-.946.349q-.264.094-.81.247a7.419 7.419 0 0 1-.98.214 6.668 6.668 0 0 1-.893.059 6.611 6.611 0 0 1-3.171-.869 4.567 4.567 0 0 1-2.078-1.806 6.713 6.713 0 0 1-.358-1.168 5.6 5.6 0 0 1-.171-1.2.95.95 0 0 1 .051-.357z" class="cls-1" transform="translate(-.01)"/>
</svg>
