<svg xmlns="http://www.w3.org/2000/svg" viewBox="0 0 23.999 24.015">
    <defs>
        <style>
            .cls-1{fill:#00a680}
        </style>
    </defs>
    <path id="restaurant" d="M-2883.464-3807.613l-7.941-8.878-1.133 1.133-8.588-8.589a4.914 4.914 0 0 1-1.379-3.141 7.88 7.88 0 0 1 .572-3.483l.176-.446h.859l11 11 9.416 9.417a2.113 2.113 0 0 1 0 2.986 2.089 2.089 0 0 1-1.487.61 2.12 2.12 0 0 1-1.495-.609zm-19.779-.022a2.115 2.115 0 0 1 0-2.986l6.726-6.726 2.986 2.985-6.726 6.727a2.084 2.084 0 0 1-1.485.613 2.128 2.128 0 0 1-1.501-.613zm12.243-15.477a2.019 2.019 0 0 0 .144-.635 3.519 3.519 0 0 1 1.024-2.277l4.977-4.977 1 1-3.816 3.816.995 1 3.816-3.816 1 1-3.816 3.815 1 1 3.815-3.815 1 1-4.978 4.978a3.511 3.511 0 0 1-2.276 1.023 2.035 2.035 0 0 0-.635.144z" class="cls-1" transform="translate(2903.86 3831.017)"/>
</svg>
