<svg xmlns="http://www.w3.org/2000/svg" viewBox="0 0 24 23.987">
    <defs>
        <style>
            .cls-1{fill:#00a680}
        </style>
    </defs>
    <path id="time" d="M-2888.677-3730.971a11.818 11.818 0 0 1-6.377-6.377 11.73 11.73 0 0 1-.945-4.672 11.668 11.668 0 0 1 .945-4.658 11.793 11.793 0 0 1 6.377-6.364 11.677 11.677 0 0 1 4.658-.958 11.793 11.793 0 0 1 4.671.958 11.758 11.758 0 0 1 6.391 6.364 11.667 11.667 0 0 1 .958 4.658 11.745 11.745 0 0 1-.958 4.672 11.781 11.781 0 0 1-6.391 6.377 11.788 11.788 0 0 1-4.671.957 11.672 11.672 0 0 1-4.658-.957zm-.617-20.168a10.524 10.524 0 0 0-3.844 3.844 10.313 10.313 0 0 0-1.4 5.275 10.334 10.334 0 0 0 .826 4.108 10.682 10.682 0 0 0 2.244 3.373 10.753 10.753 0 0 0 3.36 2.243 10.162 10.162 0 0 0 4.094.839 10.333 10.333 0 0 0 5.288-1.417 10.527 10.527 0 0 0 3.858-3.844 10.357 10.357 0 0 0 1.417-5.3 10.257 10.257 0 0 0-1.417-5.275 10.562 10.562 0 0 0-3.858-3.844 10.334 10.334 0 0 0-5.288-1.418 10.256 10.256 0 0 0-5.281 1.416zm8.7 13.738l-3.923-3.923a.686.686 0 0 1-.2-.591.608.608 0 0 0-.026-.106v-6.9a.74.74 0 0 1 .721-.735.757.757 0 0 1 .761.735v6.8l3.674 3.7a.708.708 0 0 1 0 1.023.714.714 0 0 1-.505.2.714.714 0 0 1-.503-.202z" class="cls-1" transform="translate(2896 3754)"/>
</svg>
