<svg xmlns="http://www.w3.org/2000/svg" viewBox="0 0 18 24">
    <defs>
        <style>
            .cls-1{fill:#757575}
        </style>
    </defs>
    <path id="user" d="M23.049 17.156l-3.738-1.91a1.055 1.055 0 0 1-.572-.946v-1.353c.09-.112.184-.24.281-.38a9.232 9.232 0 0 0 1.156-2.32 1.589 1.589 0 0 0 .911-1.447V7.2a1.616 1.616 0 0 0-.387-1.05V4.022a3.643 3.643 0 0 0-.819-2.61A4.865 4.865 0 0 0 16 0a4.867 4.867 0 0 0-3.877 1.412 3.644 3.644 0 0 0-.819 2.61V6.15a1.616 1.616 0 0 0-.391 1.05v1.6a1.6 1.6 0 0 0 .586 1.244 8.468 8.468 0 0 0 1.371 2.895v1.324a1.061 1.061 0 0 1-.539.928L8.84 17.136A3.62 3.62 0 0 0 7 20.3v1.3c0 1.9 5.887 2.4 9 2.4s9-.5 9-2.4v-1.217a3.6 3.6 0 0 0-1.951-3.227z" class="cls-1" transform="translate(-7)"/>
</svg>
